<svg width="58" height="46" viewBox="0 0 58 46" fill="none" xmlns="http://www.w3.org/2000/svg">
<path d="M49.175 3.88502C49.1589 3.8525 49.1322 3.82702 49.0996 3.81314C45.3392 2.01715 41.3708 0.736466 37.2938 0.00314132C37.2568 -0.00402678 37.2185 0.00114438 37.1845 0.0179194C37.1504 0.0346943 37.1223 0.062219 37.1041 0.0965791C36.5638 1.1175 36.0732 2.16616 35.6344 3.23855C31.2397 2.54412 26.7694 2.54412 22.3746 3.23855C21.9329 2.16344 21.4345 1.11452 20.8817 0.0965791C20.8628 0.0629658 20.8345 0.0360749 20.8007 0.0194089C20.7668 0.00274294 20.7289 -0.0029258 20.692 0.00314132C16.6146 0.734926 12.6459 2.01571 8.88595 3.81325C8.85377 3.82745 8.82661 3.8517 8.80822 3.88266C1.28901 15.5714 -0.770785 26.9728 0.239681 38.2329C0.242524 38.2605 0.250669 38.2873 0.263632 38.3115C0.276595 38.3358 0.294112 38.3571 0.31514 38.3741C4.69351 41.7487 9.59077 44.3246 14.7979 45.9918C14.8346 46.0032 14.8738 46.0027 14.9101 45.9903C14.9465 45.9779 14.9784 45.9542 15.0014 45.9224C16.1198 44.3383 17.1108 42.6609 17.9643 40.9073C17.976 40.8833 17.9827 40.8569 17.9839 40.8299C17.9851 40.803 17.9809 40.7761 17.9714 40.7509C17.9619 40.7258 17.9474 40.7031 17.9288 40.6843C17.9103 40.6654 17.8881 40.6509 17.8638 40.6416C16.3011 40.0192 14.7882 39.2689 13.3393 38.3977C13.313 38.3816 13.2909 38.359 13.275 38.3319C13.259 38.3048 13.2498 38.274 13.248 38.2423C13.2462 38.2106 13.2519 38.1789 13.2646 38.15C13.2774 38.1212 13.2968 38.096 13.3211 38.0768C13.6251 37.8397 13.9293 37.5931 14.2196 37.344C14.2454 37.3218 14.2766 37.3077 14.3097 37.303C14.3428 37.2984 14.3765 37.3034 14.407 37.3177C23.899 41.827 34.1754 41.827 43.5551 37.3177C43.5856 37.3025 43.6197 37.2968 43.6533 37.301C43.6869 37.3052 43.7186 37.3193 43.7449 37.3416C44.0353 37.5907 44.3394 37.8397 44.6456 38.0768C44.6701 38.0958 44.6896 38.1208 44.7026 38.1496C44.7156 38.1783 44.7215 38.21 44.7199 38.2417C44.7183 38.2734 44.7093 38.3043 44.6935 38.3315C44.6778 38.3587 44.6559 38.3815 44.6297 38.3977C43.1841 39.2762 41.6699 40.026 40.1031 40.6392C40.0788 40.6489 40.0567 40.6637 40.0382 40.6829C40.0198 40.702 40.0055 40.725 39.9961 40.7503C39.9868 40.7756 39.9828 40.8027 39.9842 40.8297C39.9856 40.8568 39.9925 40.8832 40.0044 40.9073C40.8722 42.6512 41.8617 44.3264 42.965 45.9196C42.9874 45.9523 43.0191 45.9768 43.0556 45.9897C43.0921 46.0026 43.1316 46.0032 43.1685 45.9915C48.385 44.3299 53.2908 41.7538 57.6747 38.3741C57.696 38.3579 57.7138 38.3371 57.7268 38.3132C57.7398 38.2893 57.7478 38.2627 57.7501 38.2353C58.9599 25.2174 55.7249 13.9095 49.175 3.88502ZM19.3818 31.3767C16.524 31.3767 14.1693 28.6467 14.1693 25.2941C14.1693 21.9414 16.4784 19.2113 19.3818 19.2113C22.308 19.2113 24.6399 21.9651 24.5942 25.2939C24.5942 28.6467 22.2851 31.3767 19.3818 31.3767ZM38.6541 31.3767C35.7964 31.3767 33.4416 28.6467 33.4416 25.2941C33.4416 21.9414 35.7507 19.2113 38.6541 19.2113C41.5804 19.2113 43.9123 21.9651 43.8666 25.2939C43.8666 28.6467 41.5804 31.3767 38.6541 31.3767Z" fill="white"/>
</svg>
