<svg width="59" height="42" viewBox="0 0 59 42" fill="none" xmlns="http://www.w3.org/2000/svg">
<path d="M57.7671 6.57158C57.0886 3.98486 55.0893 1.94764 52.5509 1.25628C47.9498 0 29.5 0 29.5 0C29.5 0 11.0503 0 6.44908 1.25628C3.91065 1.94775 1.91141 3.98486 1.23286 6.57158C0 11.2602 0 21.0424 0 21.0424C0 21.0424 0 30.8247 1.23286 35.5133C1.91141 38.1 3.91065 40.0524 6.44908 40.7437C11.0503 42 29.5 42 29.5 42C29.5 42 47.9497 42 52.5509 40.7437C55.0893 40.0524 57.0886 38.1 57.7671 35.5133C59 30.8247 59 21.0424 59 21.0424C59 21.0424 59 11.2602 57.7671 6.57158V6.57158ZM23.4659 29.924V12.1609L38.8863 21.0427L23.4659 29.924V29.924Z" fill="white"/>
</svg>
